<?xml version="1.0" standalone="no"?>
<!DOCTYPE svg PUBLIC "-//W3C//DTD SVG 20010904//EN"
 "http://www.w3.org/TR/2001/REC-SVG-20010904/DTD/svg10.dtd">
<svg version="1.0" xmlns="http://www.w3.org/2000/svg"
 width="225.000000pt" height="45.000000pt" viewBox="0 0 225.000000 45.000000"
 preserveAspectRatio="xMidYMid meet">

<g transform="translate(0.000000,45.000000) scale(0.100000,-0.100000)"
fill="#000000" stroke="none">
<path d="M418 439 c-16 -9 -48 -94 -48 -126 0 -9 19 -13 69 -13 61 0 70 3 76
20 6 18 15 20 81 20 41 0 74 -3 74 -6 0 -23 -39 -52 -179 -134 -151 -89 -160
-95 -166 -129 -3 -20 -8 -44 -11 -54 -5 -16 8 -17 207 -15 l213 3 6 25 c4 14
10 42 14 62 l7 37 -83 3 -83 3 93 54 c100 57 102 60 122 163 20 100 24 98
-194 98 -102 0 -188 -5 -198 -11z"/>
<path d="M855 438 c-5 -16 -95 -425 -95 -433 0 -3 37 -5 82 -3 l82 3 13 69 c7
38 14 70 16 73 3 2 22 -30 43 -72 l39 -75 83 0 c45 0 82 2 82 5 0 2 -23 54
-51 115 l-50 110 101 108 101 107 -87 3 -88 3 -73 -73 c-40 -40 -73 -70 -73
-68 0 3 7 30 15 60 8 30 15 61 15 68 0 17 -149 17 -155 0z"/>
<path d="M1316 431 c-13 -14 -45 -103 -46 -128 0 -2 33 -3 74 -3 65 0 74 2 79
20 5 18 14 20 76 20 53 0 71 -3 71 -13 0 -21 -23 -37 -182 -131 -81 -47 -149
-90 -152 -94 -2 -4 -7 -28 -11 -54 l-7 -48 211 0 c238 0 209 -11 230 87 l9 42
-82 3 -81 3 81 47 c44 27 88 56 96 65 9 10 23 50 32 90 19 87 19 78 0 97 -13
13 -45 16 -198 16 -167 0 -184 -2 -200 -19z"/>
<path d="M1825 320 c-118 -118 -131 -134 -141 -180 l-11 -50 128 0 c71 0 129
-3 129 -7 0 -5 -4 -25 -9 -45 l-9 -38 73 0 73 0 6 45 c7 43 9 45 41 45 32 0
34 2 44 50 6 28 11 53 11 55 0 3 -13 5 -30 5 -16 0 -30 2 -30 4 0 3 11 56 25
120 14 64 25 118 25 121 0 3 -44 5 -98 5 l-97 0 -130 -130z m143 -67 l-11 -53
-45 0 -46 0 54 55 c29 30 55 53 56 52 1 -1 -3 -26 -8 -54z"/>
<path d="M112 428 c-7 -7 -12 -37 -12 -67 l1 -56 20 38 c12 22 27 37 38 37 13
0 20 9 23 30 4 28 2 30 -27 30 -17 0 -36 -5 -43 -12z"/>
<path d="M217 408 c-3 -20 1 -39 9 -49 8 -8 14 -26 14 -40 1 -13 7 -35 15 -49
13 -23 14 -18 15 66 0 75 -3 93 -16 98 -27 10 -32 7 -37 -26z"/>
<path d="M203 304 c-13 -25 8 -82 23 -62 7 9 6 24 -1 47 -11 32 -13 33 -22 15z"/>
<path d="M100 157 c0 -82 4 -127 12 -135 7 -7 38 -12 69 -12 l56 0 -8 43 c-5
29 -20 55 -48 85 -49 51 -74 98 -68 123 3 11 1 19 -4 19 -5 0 -9 -55 -9 -123z
m81 -69 c0 -10 2 -10 6 0 8 20 23 3 23 -27 0 -26 -2 -28 -45 -27 -44 0 -45 1
-45 33 0 30 3 33 30 33 17 0 30 -5 31 -12z"/>
<path d="M225 175 c3 -11 11 -45 17 -75 21 -108 26 -107 30 10 l3 85 -28 0
c-23 0 -27 -3 -22 -20z"/>
</g>
</svg>
