<?xml version="1.0" standalone="no"?>
<!DOCTYPE svg PUBLIC "-//W3C//DTD SVG 20010904//EN"
 "http://www.w3.org/TR/2001/REC-SVG-20010904/DTD/svg10.dtd">
<svg version="1.0" xmlns="http://www.w3.org/2000/svg"
 width="3241.000000pt" height="640.000000pt" viewBox="0 0 3241.000000 640.000000"
 preserveAspectRatio="xMidYMid meet">

<g transform="translate(0.000000,640.000000) scale(0.100000,-0.100000)"
fill="#000000" stroke="none">
<path d="M3422 6168 c-9 -9 -12 -659 -12 -2865 l0 -2853 24 -15 c20 -14 119
-15 844 -13 657 2 824 6 834 16 11 11 14 329 18 1668 l5 1655 1116 -1658 c694
-1032 1125 -1663 1140 -1670 19 -10 244 -13 994 -13 862 0 973 2 993 16 l22
15 0 2853 c0 2205 -3 2855 -12 2864 -9 9 -210 12 -843 12 -633 0 -834 -3 -843
-12 -9 -9 -12 -384 -12 -1627 0 -1371 -2 -1613 -14 -1601 -7 8 -496 735 -1086
1615 -590 880 -1080 1606 -1088 1613 -22 17 -2062 18 -2080 0z"/>
<path d="M9777 6162 c-16 -17 -17 -230 -17 -2858 0 -2273 3 -2844 13 -2857 12
-17 100 -18 1512 -14 1604 4 1520 1 1822 53 223 37 493 115 676 194 50 22 92
38 94 36 2 -2 -22 -58 -52 -124 -47 -100 -54 -125 -45 -142 11 -20 15 -20 934
-20 727 0 926 3 933 13 6 6 117 261 248 565 l238 552 1000 -2 1000 -3 243
-545 c133 -300 248 -553 254 -562 10 -17 165 -18 3045 -18 2880 0 3035 1 3043
18 5 9 17 51 25 92 9 41 89 409 177 818 127 587 159 746 149 758 -10 12 -185
14 -1225 14 -706 0 -1214 4 -1214 9 0 5 528 272 1173 594 1208 603 1306 655
1444 782 70 63 156 187 196 283 37 87 46 125 222 937 125 575 157 741 162 825
17 308 -121 526 -378 597 -60 17 -197 18 -2364 18 -2165 0 -2304 -1 -2369 -18
-218 -56 -388 -181 -517 -380 -94 -146 -123 -235 -285 -894 -124 -507 -146
-604 -135 -617 12 -15 104 -16 919 -14 l906 3 97 240 98 240 1036 3 c829 2
1036 0 1032 -10 -2 -7 -39 -119 -81 -249 l-76 -237 -1957 -1096 c-1076 -603
-1958 -1095 -1959 -1093 -1 1 -444 927 -983 2056 -540 1130 -987 2058 -993
2063 -21 13 -1332 10 -1345 -3 -6 -6 -397 -825 -869 -1820 l-858 -1809 -32 89
c-119 333 -386 626 -726 797 -48 24 -88 48 -88 52 0 4 33 30 72 57 166 116
359 343 436 515 86 194 116 345 116 585 -1 275 -39 457 -139 660 -255 520
-849 814 -1770 875 -87 6 -708 10 -1486 10 -1282 0 -1337 -1 -1352 -18z m2615
-1397 c222 -33 334 -99 394 -229 23 -51 26 -67 22 -131 -11 -173 -114 -276
-334 -337 -75 -20 -104 -22 -536 -26 l-458 -4 0 371 0 371 408 0 c305 0 431
-4 504 -15z m4922 -1342 c108 -249 196 -455 196 -458 0 -3 -180 -5 -399 -5
l-399 0 180 418 c227 528 218 506 222 501 2 -2 92 -207 200 -456z m-4684 -807
c310 -60 452 -177 452 -370 0 -230 -190 -381 -522 -416 -52 -5 -317 -10 -587
-10 l-493 0 0 411 0 411 533 -5 c439 -4 547 -7 617 -21z"/>
<path d="M26315 6167 c-15 -11 -133 -554 -621 -2843 -332 -1556 -603 -2842
-601 -2859 l2 -30 1046 -3 c1043 -2 1046 -2 1072 18 15 12 31 38 37 58 6 20
46 258 90 527 178 1104 234 1445 240 1445 3 0 81 -150 174 -333 626 -1228 848
-1653 881 -1685 l35 -32 1063 0 c813 0 1066 3 1075 12 7 7 12 19 12 28 0 9
-308 671 -685 1470 l-684 1454 52 55 c29 31 612 638 1297 1350 685 712 1251
1304 1257 1317 16 28 8 50 -20 58 -12 3 -524 6 -1137 6 -856 -1 -1120 -4
-1136 -13 -11 -7 -431 -432 -933 -945 -502 -513 -915 -931 -917 -929 -3 3 421
1760 442 1829 3 9 -4 26 -15 37 -21 21 -26 21 -1014 21 -818 0 -996 -2 -1012
-13z"/>
<path d="M1440 6040 c-383 -5 -440 -8 -480 -23 -100 -39 -189 -116 -243 -208
-60 -102 -57 44 -57 -2509 0 -2067 2 -2343 15 -2395 35 -132 115 -229 242
-292 l77 -38 733 -5 732 -5 -24 20 c-57 49 -68 108 -50 275 22 206 22 241 3
270 -12 17 -16 43 -15 82 2 54 -3 67 -70 198 -72 138 -83 172 -62 186 14 8 6
49 -21 113 -18 41 -33 56 -98 99 -42 28 -115 81 -162 119 -121 98 -396 374
-469 471 -90 119 -246 353 -293 440 -44 80 -44 80 -112 90 l-47 7 -23 65 c-13
36 -61 142 -107 235 -47 94 -90 194 -97 223 -17 77 -15 160 8 274 23 112 35
140 79 187 20 21 31 44 31 62 l0 29 -79 0 c-91 0 -116 14 -131 70 -5 19 -15
53 -21 76 -11 37 -9 50 19 139 18 53 70 179 116 279 46 99 94 208 106 241 56
154 182 356 250 401 44 30 133 54 197 54 23 0 54 5 69 11 16 5 59 14 98 19 97
12 113 30 127 143 11 79 10 89 -6 107 -19 21 -31 95 -21 134 4 18 13 26 29 26
21 0 23 6 34 95 14 121 41 170 112 209 28 15 51 29 51 32 0 2 -1 3 -2 2 -2 -1
-199 -5 -438 -8z m-282 -4642 c28 -156 50 -258 47 -228 -2 30 -7 157 -11 283
l-7 227 56 0 57 0 0 -415 0 -415 -75 0 -74 0 -7 38 c-4 20 -28 149 -54 286
l-46 248 4 -286 4 -286 -56 0 -56 0 0 415 0 415 83 0 82 0 53 -282z m472 257
c47 -43 55 -72 55 -205 0 -111 -2 -129 -21 -159 l-22 -34 22 -36 c18 -31 21
-51 21 -151 0 -188 -31 -220 -207 -220 l-108 0 0 416 0 416 119 -4 c102 -3
122 -6 141 -23z m350 15 c0 -6 20 -184 45 -396 25 -211 45 -393 45 -404 0 -18
-7 -20 -59 -20 l-60 0 -5 53 c-3 28 -7 66 -8 82 -3 29 -5 30 -48 30 -43 0 -45
-1 -48 -30 -1 -16 -5 -54 -8 -82 l-5 -53 -61 0 -60 0 6 38 c3 20 24 190 46
377 22 187 43 357 46 378 l6 37 84 0 c51 0 84 -4 84 -10z"/>
<path d="M1490 1440 l0 -130 34 0 c42 0 46 12 46 133 0 104 -9 127 -50 127
l-30 0 0 -130z"/>
<path d="M1490 1085 c0 -123 0 -125 23 -125 45 0 52 14 56 110 3 103 -11 140
-54 140 l-25 0 0 -125z"/>
<path d="M1871 1342 c-7 -97 -15 -187 -18 -199 -5 -21 -2 -23 36 -23 l41 0 -6
43 c-2 23 -11 111 -19 195 -7 85 -15 156 -17 158 -3 2 -10 -76 -17 -174z"/>
<path d="M2030 6043 c0 -2 15 -9 33 -17 43 -17 143 -113 156 -149 18 -47 12
-127 -13 -190 -20 -47 -22 -63 -13 -86 9 -24 6 -35 -28 -89 -21 -34 -43 -62
-49 -62 -6 0 -24 -25 -40 -55 -16 -30 -46 -73 -67 -94 -55 -55 -52 -73 20
-111 57 -31 95 -59 102 -78 2 -5 38 -31 79 -59 178 -119 234 -235 250 -513 12
-219 50 -401 110 -530 59 -128 67 -153 80 -255 17 -124 25 -142 66 -150 19 -3
45 -18 57 -32 12 -13 34 -31 48 -38 15 -8 39 -41 60 -81 l34 -68 3 1115 c1
718 -1 1133 -8 1169 -29 154 -131 279 -281 342 -50 21 -74 23 -327 28 -149 3
-272 4 -272 3z"/>
<path d="M2058 4470 l-77 -51 -62 -157 c-34 -86 -64 -175 -66 -197 -5 -36 -2
-42 20 -52 37 -17 66 -90 137 -341 53 -189 61 -227 51 -246 -10 -18 -8 -36 8
-96 33 -116 58 -261 76 -425 9 -82 18 -159 21 -170 10 -41 59 -151 87 -200 51
-85 93 -178 107 -230 6 -27 29 -148 49 -267 37 -215 38 -218 80 -278 23 -33
49 -79 57 -103 14 -40 13 -52 -6 -135 -11 -51 -20 -114 -20 -141 0 -65 26
-211 44 -246 8 -15 12 -41 10 -59 -3 -19 6 -64 26 -121 37 -106 48 -205 30
-260 -7 -21 -31 -58 -53 -82 l-41 -44 30 6 c16 4 62 22 101 41 125 60 213 173
242 312 8 37 11 374 11 1105 l-1 1052 -25 -48 c-36 -70 -105 -134 -182 -170
-62 -30 -75 -32 -172 -32 -97 0 -110 2 -172 32 -246 116 -308 436 -123 641 43
48 146 112 180 112 26 0 15 32 -80 227 -88 182 -101 224 -150 488 -34 186 -34
185 -48 185 -6 0 -47 -23 -89 -50z"/>
</g>
</svg>
